<?xml version="1.0" standalone="no"?>
<!DOCTYPE svg PUBLIC "-//W3C//DTD SVG 20010904//EN"
 "http://www.w3.org/TR/2001/REC-SVG-20010904/DTD/svg10.dtd">
<svg version="1.0" xmlns="http://www.w3.org/2000/svg"
 width="512.000000pt" height="512.000000pt" viewBox="0 0 512.000000 512.000000"
 preserveAspectRatio="xMidYMid meet">

<g transform="translate(0.000000,512.000000) scale(0.100000,-0.100000)"
fill="#fffffff" stroke="none">
<path d="M2380 5114 c-19 -2 -78 -9 -130 -14 -330 -36 -695 -160 -990 -336
-375 -224 -680 -529 -904 -904 -175 -292 -291 -632 -338 -990 -16 -123 -16
-497 0 -620 82 -623 356 -1150 820 -1581 256 -239 575 -425 922 -539 274 -91
491 -124 800 -124 228 0 329 9 530 50 689 141 1304 583 1674 1204 175 292 291
632 338 990 16 123 16 497 0 620 -47 358 -163 698 -338 990 -224 375 -529 680
-904 904 -289 173 -634 291 -980 336 -88 12 -438 21 -500 14z m385 -304 c583
-54 1146 -347 1517 -790 715 -853 715 -2067 0 -2920 -371 -443 -934 -736
-1517 -790 -598 -55 -1196 135 -1665 528 -498 417 -800 1067 -800 1722 0 676
320 1341 847 1761 459 366 1041 542 1618 489z"/>
<path d="M1885 3776 l-670 -253 0 -963 0 -963 673 -252 672 -253 673 253 672
252 0 963 0 963 -675 253 c-371 140 -675 253 -675 253 0 -1 -301 -115 -670
-253z m1204 -266 l521 -195 0 -122 0 -121 -77 -30 c-43 -16 -279 -105 -525
-197 l-448 -168 -447 168 c-247 92 -483 181 -525 197 l-78 30 0 121 0 122 523
196 c287 108 525 196 528 195 4 0 241 -89 528 -196z m-1036 -962 l507 -190
508 190 c279 105 515 194 525 197 16 7 17 -3 15 -150 l-3 -158 -515 -193
c-283 -107 -522 -194 -530 -194 -8 0 -247 87 -530 194 l-515 193 -3 158 c-2
147 -1 157 15 150 10 -3 246 -92 526 -197z m43 -649 c248 -93 457 -169 464
-169 11 0 419 151 983 364 l67 25 0 -157 0 -157 -525 -196 -525 -196 -525 196
-525 196 0 157 0 157 68 -25 c37 -14 270 -102 518 -195z"/>
</g>
</svg>
